<?xml version="1.0" encoding="UTF-8"?>
<svg width="7px" height="7px" viewBox="0 0 7 7" version="1.1" xmlns="http://www.w3.org/2000/svg" xmlns:xlink="http://www.w3.org/1999/xlink">
    <!-- Generator: sketchtool 49.3 (51167) - http://www.bohemiancoding.com/sketch -->
    <title>55FF16B5-460E-454C-A685-686C926F0B51</title>
    <desc>Created with sketchtool.</desc>
    <defs></defs>
    <g id="MySubway_Android" stroke="none" stroke-width="1" fill="none" fill-rule="evenodd">
        <g id="0.1-Login" transform="translate(-80.000000, -451.000000)" fill="#9B9B9B">
            <g id="Skip" transform="translate(77.000000, 443.000000)">
                <g id="Arrows" transform="translate(0.000000, 8.000000)">
                    <path d="M5.03553391,5.03553391 L8.53553391,5.03553391 C8.81167628,5.03553391 9.03553391,5.25939153 9.03553391,5.53553391 C9.03553391,5.81167628 8.81167628,6.03553391 8.53553391,6.03553391 L4.53553391,6.03553391 C4.25939153,6.03553391 4.03553391,5.81167628 4.03553391,5.53553391 L4.03553391,1.53553391 C4.03553391,1.25939153 4.25939153,1.03553391 4.53553391,1.03553391 C4.81167628,1.03553391 5.03553391,1.25939153 5.03553391,1.53553391 L5.03553391,5.03553391 Z" id="Combined-Shape" transform="translate(6.535534, 3.535534) rotate(-135.000000) translate(-6.535534, -3.535534) "></path>
                    <path d="M2.03553391,5.03553391 L5.53553391,5.03553391 C5.81167628,5.03553391 6.03553391,5.25939153 6.03553391,5.53553391 C6.03553391,5.81167628 5.81167628,6.03553391 5.53553391,6.03553391 L1.53553391,6.03553391 C1.25939153,6.03553391 1.03553391,5.81167628 1.03553391,5.53553391 L1.03553391,1.53553391 C1.03553391,1.25939153 1.25939153,1.03553391 1.53553391,1.03553391 C1.81167628,1.03553391 2.03553391,1.25939153 2.03553391,1.53553391 L2.03553391,5.03553391 Z" id="Combined-Shape-Copy" transform="translate(3.535534, 3.535534) rotate(-135.000000) translate(-3.535534, -3.535534) "></path>
                </g>
            </g>
        </g>
    </g>
</svg>