<?xml version="1.0" encoding="UTF-8"?>
<svg width="12px" height="12px" viewBox="0 0 12 12" version="1.1" xmlns="http://www.w3.org/2000/svg" xmlns:xlink="http://www.w3.org/1999/xlink">
    <!-- Generator: sketchtool 49.3 (51167) - http://www.bohemiancoding.com/sketch -->
    <title>9A756CE4-A155-4E9D-BD29-9548FEFAE0CC</title>
    <desc>Created with sketchtool.</desc>
    <defs></defs>
    <g id="Symbols" stroke="none" stroke-width="1" fill="none" fill-rule="evenodd">
        <g id="Icon_search_grey" transform="translate(-6.000000, -6.000000)" fill="#A9A9A9">
            <path d="M14.4944459,13.4911175 C15.0833691,12.6878845 15.398853,11.7167951 15.3944543,10.720806 C15.3832173,8.12094385 13.2803963,6.01506395 10.6805533,6.00004776 C9.43638181,5.9944186 8.2416346,6.48661506 7.36246751,7.36698969 C6.48330042,8.24736432 5.99274428,9.44278597 6.00008113,10.6869485 C6.01131813,13.2870473 8.11433098,15.3931191 10.7144107,15.4081353 C11.7144573,15.4124696 12.6890947,15.0933033 13.4928651,14.4982697 L16.7787529,17.7798717 C16.956225,17.9660564 17.2206705,18.0414196 17.4696292,17.9767615 C17.7185879,17.9121035 17.9129411,17.7175839 17.9773861,17.4685699 C18.041831,17.219556 17.9662416,16.955175 17.779905,16.7778623 L14.4944459,13.4911175 Z M10.7101511,14.238967 C8.75623068,14.2277271 7.17578783,12.6451291 7.16721049,10.6911951 C7.16193682,9.75629589 7.53063278,8.85808602 8.19122519,8.19651058 C8.8518176,7.53493515 9.74947823,7.16490397 10.6843843,7.16878745 C12.6383047,7.18002742 14.2187476,8.76262543 14.2273249,10.7165594 C14.2325986,11.6514586 13.8639026,12.5496685 13.2033102,13.2112439 C12.5427178,13.8728193 11.6450572,14.2428505 10.7101511,14.238967 Z" id="Search"></path>
        </g>
    </g>
</svg>