<svg xmlns="http://www.w3.org/2000/svg" xmlns:xlink="http://www.w3.org/1999/xlink" width="236" height="38" viewBox="0 0 236 38">
    <defs>
        <path id="a" d="M0 .374h130.563V34H0z"/>
        <path id="c" d="M.418.378h37.993v33.105H.418z"/>
    </defs>
    <g fill="none" fill-rule="evenodd">
        <g transform="translate(0 4)">
            <mask id="b" fill="#fff">
                <use xlink:href="#a"/>
            </mask>
            <path fill="#FFCA01" d="M115.033 6.906h3.756c1.743 0 2.457 1.19 2.457 2.595 0 1.311-.499 2.595-2.288 2.595h-3.925v-5.19zm0 10.964l3.94.008c2.06 0 2.806 1.143 2.806 2.822 0 1.568-.533 2.83-2.604 2.83h-4.142v-5.66zm7.453 12.307c5.171-.216 8.077-4.142 8.077-8.632 0-3.29-.639-5.15-3.99-7.164 2.7-1.9 3.275-3.65 3.275-6.242 0-4.071-3.387-7.485-7.362-7.765h-16.213v29.803h16.213zM103.344.374v18.977c0 3.35.215 5.623-2.765 8.538-2.156 2.107-5.451 2.906-9.2 2.906-3.74 0-7.365-.982-9.32-2.95-2.47-2.485-2.643-4.844-2.643-8.494V.374h8.732l-.041 19.122c0 2.071.281 3.925 3.274 3.925s3.23-1.921 3.23-3.925V.374h8.733zm-37.077 7.18h9.992V.38H64.634c-.177-.011-.354 0-.532 0-4.46 0-8.578 3.328-8.578 8.35 0 3.324 1.817 6.219 5.322 7.855 0 0 5.753 2.858 6.9 3.419 1.06.518 1.596 1.308 1.457 2.01-.07.35-.508.839-.981.917-.345.056-59.306 0-59.306 0v-4.023L0 26.453 8.916 34v-4.023l60.397.165c4.46 0 8.514-3.735 8.514-8.225 0-3.626-1.443-5.61-3.495-7.07l-8.67-4.549c-.351-.183-1.614-.706-1.624-1.722-.007-.838.673-1.022 1.23-1.022h1z" mask="url(#b)"/>
        </g>
        <g transform="translate(197)">
            <mask id="d" fill="#fff">
                <use xlink:href="#c"/>
            </mask>
            <path fill="#009945" d="M24.526 11.016v6.024c0 4.198-3.325 7.658-7.473 7.879v8.564H7.591v-8.586C3.584 24.528.418 21.136.418 17.04V3.97h8.65v11.684a2.78 2.78 0 0 0 2.771 2.77h1.266a2.78 2.78 0 0 0 2.772-2.77V9.451h.032l-.001-.121c0-2.961 2.401-5.36 5.364-5.36H29.493V.377l8.919 7.115-8.919 7.115v-3.592h-4.966z" mask="url(#d)"/>
        </g>
        <path fill="#009945" d="M186.25 18.065h-6.503v-4.37a3.264 3.264 0 0 1 3.252-3.258 3.264 3.264 0 0 1 3.251 3.257v4.371zm5.974-12.185c-1.82-1.823-4.708-2.88-8.576-2.88-4.007 0-6.971.887-9.331 2.836-2.74 2.261-3.317 5.466-3.317 9.028V34h8.747v-9.162h6.503V34h8.746V14.567c0-4.5.22-5.689-2.772-8.687zM169 4v20.83c0 2.61-.918 4.727-2.762 6.368-1.845 1.64-5.04 2.8-7.693 2.8-2.268 0-5.005-.011-7.545-2.31-2.453 2.48-5.814 2.31-8.328 2.31-3.454.01-5.6-1.16-7.233-2.8-1.623-1.64-2.439-4.004-2.439-7.084V4h8.64v19.752a2.572 2.572 0 0 0 2.568 2.56 2.573 2.573 0 0 0 2.57-2.56V4h8.243v19.752a2.572 2.572 0 0 0 2.569 2.56 2.572 2.572 0 0 0 2.569-2.56V4H169zM220.449 31.83c-.146.264-.353.47-.618.618a1.681 1.681 0 0 1-.829.22c-.288 0-.565-.073-.831-.22a1.574 1.574 0 0 1-.619-.618 1.675 1.675 0 0 1-.22-.83c0-.289.074-.567.224-.834.15-.269.358-.475.625-.619a1.71 1.71 0 0 1 .821-.216c.278 0 .551.073.819.216.266.144.474.35.623.619.15.267.225.545.225.835 0 .289-.074.564-.22.829m.283-1.832a1.834 1.834 0 0 0-.747-.74 2.047 2.047 0 0 0-.983-.258c-.337 0-.664.086-.984.258-.32.172-.57.42-.749.74-.18.32-.269.656-.269 1.003 0 .345.088.677.265.994.176.318.423.565.74.741a2.018 2.018 0 0 0 1.99 0c.32-.176.565-.423.74-.74A2.02 2.02 0 0 0 221 31c0-.347-.09-.682-.268-1.003"/>
        <path fill="#009945" d="M218.851 30.874h-.467v-.601h.438c.188 0 .316.012.386.034a.344.344 0 0 1 .162.105c.04.046.059.099.059.158 0 .09-.04.165-.122.22-.081.056-.233.084-.456.084zm.858.735a2.35 2.35 0 0 0-.351-.397.644.644 0 0 0-.203-.106.812.812 0 0 0 .495-.183.488.488 0 0 0 .188-.38.463.463 0 0 0-.111-.294.592.592 0 0 0-.3-.193c-.126-.038-.328-.056-.608-.056H218v2h.384v-.848h.226c.135-.001.238.021.307.067.103.062.238.218.405.466l.21.315H220l-.291-.391zM11 25V10.419c0-1.827.638-3.309 1.918-4.457 1.28-1.15 3.5-1.96 5.342-1.96 1.575 0 3.475.006 5.24 1.615 1.704-1.735 4.038-1.615 5.783-1.615 2.4-.007 3.89.81 5.023 1.96C35.433 7.11 36 8.765 36 10.919V25h-6V11.173c0-.985-.803-1.792-1.783-1.792-.982 0-1.785.807-1.785 1.792V25h-5.724V11.173c0-.985-.804-1.792-1.784-1.792-.982 0-1.784.807-1.784 1.792V25H11zM54 13.857c0 2.846-2.345 5.19-5.27 5.34V25h-6.673v-5.818c-2.825-.25-5.057-2.55-5.057-5.325V5h6.099v7.919c0 1.033.88 1.877 1.954 1.877h.894c1.074 0 1.954-.844 1.954-1.877V5H54v8.857z"/>
    </g>
</svg>
