<?xml version="1.0" encoding="UTF-8"?>
<svg width="28px" height="27px" viewBox="0 0 28 27" version="1.1" xmlns="http://www.w3.org/2000/svg" xmlns:xlink="http://www.w3.org/1999/xlink">
    <!-- Generator: sketchtool 49.3 (51167) - http://www.bohemiancoding.com/sketch -->
    <title>DFD2B466-0980-4AF8-989D-C56B32EBA57C</title>
    <desc>Created with sketchtool.</desc>
    <defs>
        <polygon id="path-1" points="0 0.0523894076 27.7493829 0.0523894076 27.7493829 25.4930278 0 25.4930278"></polygon>
    </defs>
    <g id="Symbols" stroke="none" stroke-width="1" fill="none" fill-rule="evenodd">
        <g id="Logo/logo_kt">
            <g id="Page-1">
                <g id="Group-3" transform="translate(0.000000, 0.064551)">
                    <mask id="mask-2" fill="white">
                        <use xlink:href="#path-1"></use>
                    </mask>
                    <g id="Clip-2"></g>
                    <path d="M11.4549908,21.7791304 C11.4549908,21.7791304 13.0492425,21.9449523 13.8744926,21.9449523 C21.5372621,21.9449523 27.7493829,17.0442038 27.7493829,10.9983726 C27.7493829,4.95336002 21.5372621,0.0523777136 13.8744926,0.0523777136 C6.21184013,0.0523777136 -4.67762568e-05,4.95336002 -4.67762568e-05,10.9983726 C-4.67762568e-05,14.7458524 2.38636091,18.0531677 6.02590451,20.0264241 C6.02590451,20.0264241 5.53416911,22.6446081 2.78372521,25.1534526 C2.78372521,25.1534526 2.51148739,25.6317399 3.32738225,25.4530546 C4.14397876,25.2743693 9.21662993,23.4831895 11.4549908,21.7791304" id="Fill-1" fill="#412D33" mask="url(#mask-2)"></path>
                </g>
                <path d="M7.82925784,8.10521437 L3.68441373,8.10521437 C3.29476751,8.10521437 2.97914471,8.42083716 2.97914471,8.81001562 C2.97914471,9.19966184 3.29476751,9.51540157 3.68441373,9.51540157 L5.03156992,9.51540157 L5.03156992,14.4803504 C5.03156992,14.6611406 5.10524253,14.8380718 5.23446194,14.9665896 C5.36122559,15.0949904 5.53815678,15.1678444 5.71941478,15.1678444 L5.87003433,15.1678444 C6.0503568,15.1678444 6.22682023,15.0949904 6.35358388,14.9669404 C6.48245247,14.8385396 6.5564759,14.6616084 6.5564759,14.4803504 L6.5564759,9.51540157 L7.82925784,9.51540157 C8.21890406,9.51540157 8.53452686,9.19966184 8.53452686,8.81001562 C8.53452686,8.42083716 8.21890406,8.10521437 7.82925784,8.10521437" id="Fill-4" fill="#FFF100"></path>
                <path d="M17.7894782,13.8422755 L15.8628812,13.8422755 L15.8628812,8.77137843 C15.8628812,8.34852107 15.5201281,8.00611887 15.0979724,8.00611887 C14.6756998,8.00611887 14.3328298,8.34852107 14.3328298,8.77137843 L14.3328298,14.2374179 C14.3328298,14.2795166 14.3387938,14.3196272 14.3452255,14.3599717 C14.3373905,14.3994977 14.3328298,14.4404269 14.3328298,14.4820577 C14.3328298,14.8355693 14.6191005,15.1221908 14.9730798,15.1221908 L17.7894782,15.1221908 C18.1434576,15.1221908 18.4297282,14.8355693 18.4297282,14.4820577 C18.4297282,14.1290139 18.1434576,13.8422755 17.7894782,13.8422755" id="Fill-6" fill="#FFF100"></path>
                <path d="M23.948508,14.0744962 L21.8004253,11.2538879 L23.7414061,9.3124394 C24.0046395,9.05002459 24.0046395,8.62330819 23.7417569,8.36089339 C23.4788743,8.09801083 23.0527426,8.09801083 22.7896262,8.36089339 L20.3873146,10.7634389 L20.3873146,8.77135504 C20.3873146,8.34849768 20.0444446,8.00609548 19.6224059,8.00609548 C19.2001332,8.00609548 18.8570294,8.34849768 18.8570294,8.77135504 L18.8570294,14.4050874 C18.8570294,14.8282956 19.2001332,15.170347 19.6224059,15.170347 C20.0444446,15.170347 20.3873146,14.8282956 20.3873146,14.4050874 L20.3873146,12.6669987 L20.8237371,12.2304592 L22.8548791,14.8967059 C23.0810423,15.1992313 23.5106822,15.2600405 23.8123891,15.0328248 C24.1147976,14.8057261 24.1754898,14.3769047 23.948508,14.0744962" id="Fill-8" fill="#FFF100"></path>
                <path d="M9.73839568,12.4287672 L10.6881876,9.71820004 C10.6988292,9.71820004 10.7081844,9.72077273 10.718826,9.72077273 L11.6679163,12.4287672 L9.73839568,12.4287672 Z M13.7608029,14.2579527 L11.6950465,8.607147 C11.6950465,8.607147 11.6903689,8.60293713 11.6882639,8.60118302 C11.5558871,8.25702671 11.1748945,8.00618904 10.7204632,8.00618904 C10.2159813,8.00618904 9.79920482,8.31409375 9.71617696,8.71730508 C9.70214409,8.74712494 9.68822815,8.77729563 9.67665103,8.81003901 L7.64550901,14.2579527 C7.5200317,14.6152064 7.70807226,15.0061389 8.06450733,15.1311485 C8.42141017,15.2567427 8.81269356,15.069053 8.93817087,14.7116824 L9.2895775,13.7086825 L12.1166175,13.7086825 L12.4679072,14.7116824 C12.5935015,15.069053 12.9847848,15.2567427 13.3416877,15.1311485 C13.6981228,15.0061389 13.8861633,14.6152064 13.7608029,14.2579527 Z" id="Fill-10" fill="#FFF100"></path>
                <polygon id="Fill-12" fill="#C2B2AD" points="11.6109896 4.77434729 11.095866 4.77434729 10.5573544 5.63082055 10.5573544 4.77434729 10.1213997 4.77434729 10.1213997 6.63767948 10.5573544 6.63767948 10.5573544 5.75243882 11.095866 6.60832738 11.6109896 6.60832738 11.0350569 5.69116192"></polygon>
                <polygon id="Fill-14" fill="#C2B2AD" points="14.9255785 4.77434729 14.4103381 4.77434729 13.8718264 5.63082055 13.8718264 4.77434729 13.4358717 4.77434729 13.4358717 6.63767948 13.8718264 6.63767948 13.8718264 5.75243882 14.4103381 6.60832738 14.9255785 6.60832738 14.3496459 5.69116192"></polygon>
                <path d="M12.248281,5.89876664 L12.3324783,5.23992307 C12.4592419,5.09561831 12.5642546,5.24074165 12.5642546,5.24074165 L12.6484519,5.89876664 L12.248281,5.89876664 Z M12.7390809,6.60918104 L13.1746848,6.60918104 L12.9427915,5.18846918 C12.9427915,5.18846918 12.8521625,4.77438237 12.4481325,4.77438237 C12.0439857,4.77438237 11.9538245,5.18753366 11.9538245,5.18753366 L11.7220481,6.60836246 L12.157652,6.60836246 L12.2060654,6.22807149 L12.6906674,6.22807149 L12.7390809,6.60918104 Z" id="Fill-16" fill="#C2B2AD"></path>
                <path d="M15.5636184,5.89876664 L15.6478156,5.23992307 C15.7745793,5.09561831 15.879592,5.24074165 15.879592,5.24074165 L15.9639062,5.89876664 L15.5636184,5.89876664 Z M16.0545352,6.60918104 L16.4900221,6.60918104 L16.2581288,5.18846918 C16.2581288,5.18846918 16.1676168,4.77438237 15.7634699,4.77438237 C15.3593231,4.77438237 15.2691618,5.18753366 15.2691618,5.18753366 L15.0373855,6.60836246 L15.4731063,6.60836246 L15.5215197,6.22807149 L16.0058879,6.22807149 L16.0545352,6.60918104 Z" id="Fill-18" fill="#C2B2AD"></path>
                <path d="M17.3502726,6.23610531 C17.1383761,6.23610531 17.1021245,6.03368106 17.1021245,6.03368106 L17.1021245,5.39085835 C17.1021245,5.39085835 17.1383761,5.1884341 17.3502726,5.1884341 C17.5620521,5.1884341 17.6402854,5.39085835 17.6402854,5.39085835 L17.6402854,6.03368106 C17.6402854,6.03368106 17.5620521,6.23610531 17.3502726,6.23610531 Z M18.076357,5.31940762 C18.076357,5.31940762 17.9959019,4.77434729 17.3502726,4.77434729 C16.7044094,4.77434729 16.6661698,5.31940762 16.6661698,5.31940762 L16.6661698,6.09238526 L16.6733032,6.0919175 L16.6661698,6.10501485 C16.6661698,6.10501485 16.7044094,6.65042601 17.3502726,6.65042601 C17.9959019,6.65042601 18.076357,6.10501485 18.076357,6.10501485 L18.0657154,6.09144974 L18.076357,6.09238526 L18.076357,5.31940762 Z" id="Fill-20" fill="#C2B2AD"></path>
            </g>
        </g>
    </g>
</svg>