<?xml version="1.0" encoding="UTF-8"?>
<svg width="16px" height="15px" viewBox="0 0 16 15" version="1.1" xmlns="http://www.w3.org/2000/svg" xmlns:xlink="http://www.w3.org/1999/xlink">
    <!-- Generator: sketchtool 49.3 (51167) - http://www.bohemiancoding.com/sketch -->
    <title>6DFCC824-A647-4290-BEE3-14DA91465CB8</title>
    <desc>Created with sketchtool.</desc>
    <defs></defs>
    <g id="Symbols" stroke="none" stroke-width="1" fill="none" fill-rule="evenodd">
        <g id="icon/heart_empty" transform="translate(1.000000, 1.000000)" stroke="#A9A9A9">
            <path d="M0.100876832,4.72878032 C0.0349198584,4.44233065 0,4.14341935 0,3.83606557 C0,1.71746506 1.65918004,0 3.70588235,0 C5.14003056,0 6.38390655,0.843269941 7,2.07693027 C7.61609345,0.843269941 8.85996944,0 10.2941176,0 C12.34082,0 14,1.71746506 14,3.83606557 C14,4.11219316 13.9718152,4.38150658 13.9182611,4.64109146 C13.9139603,4.69127679 13.9069175,4.7425992 13.8970588,4.79508197 C13.1764706,8.63114758 7.10294118,13 7.10294118,13 C7.10294118,13 0.308823529,8.41803282 0.102941176,4.79508197 C0.101672966,4.77276503 0.100987353,4.75066517 0.100876832,4.72878032 Z" id="Love"></path>
        </g>
    </g>
</svg>